<svg width="53" height="25" viewBox="0 0 53 25" fill="none" xmlns="http://www.w3.org/2000/svg">
<rect width="53" height="25" rx="5" fill="#142AF0"/>
<path d="M14.2757 17V8.27273H17.8809C18.5343 8.27273 19.0982 8.40057 19.5726 8.65625C20.0499 8.90909 20.4178 9.26278 20.6763 9.71733C20.9348 10.169 21.0641 10.6946 21.0641 11.294C21.0641 11.8963 20.932 12.4233 20.6678 12.875C20.4064 13.3239 20.0328 13.6719 19.5471 13.919C19.0613 14.1662 18.4846 14.2898 17.8169 14.2898H15.5925V12.6278H17.4249C17.7431 12.6278 18.0087 12.5724 18.2218 12.4616C18.4377 12.3509 18.601 12.196 18.7118 11.9972C18.8226 11.7955 18.878 11.5611 18.878 11.294C18.878 11.0241 18.8226 10.7912 18.7118 10.5952C18.601 10.3963 18.4377 10.2429 18.2218 10.1349C18.0059 10.027 17.7402 9.97301 17.4249 9.97301H16.3851V17H14.2757ZM24.1877 8.27273V17H22.1039V8.27273H24.1877ZM29.737 14.1747V10.4545H31.8166V17H29.8308V15.7812H29.7626C29.6177 16.1818 29.3706 16.5 29.0211 16.7358C28.6745 16.9687 28.2555 17.0852 27.764 17.0852C27.318 17.0852 26.926 16.983 26.5879 16.7784C26.2498 16.5739 25.987 16.2884 25.7995 15.9219C25.612 15.5526 25.5169 15.1207 25.514 14.6264V10.4545H27.5978V14.2173C27.6007 14.5724 27.6944 14.8523 27.8791 15.0568C28.0637 15.2614 28.3152 15.3636 28.6333 15.3636C28.8407 15.3636 29.0268 15.3182 29.1916 15.2273C29.3592 15.1335 29.4913 14.9986 29.5879 14.8224C29.6873 14.6435 29.737 14.4276 29.737 14.1747ZM38.8574 12.4531L36.9441 12.5043C36.9242 12.3679 36.8702 12.2472 36.7821 12.142C36.6941 12.0341 36.579 11.9503 36.437 11.8906C36.2978 11.8281 36.1358 11.7969 35.9512 11.7969C35.7097 11.7969 35.5037 11.8452 35.3333 11.9418C35.1657 12.0384 35.0833 12.169 35.0861 12.3338C35.0833 12.4616 35.1344 12.5724 35.2395 12.6662C35.3475 12.7599 35.5392 12.8352 35.8148 12.892L37.0762 13.1307C37.7296 13.2557 38.2154 13.4631 38.5336 13.7528C38.8546 14.0426 39.0165 14.4261 39.0194 14.9034C39.0165 15.3523 38.883 15.7429 38.6188 16.0753C38.3574 16.4077 37.9995 16.6662 37.5449 16.8509C37.0904 17.0327 36.5705 17.1236 35.9853 17.1236C35.0506 17.1236 34.3134 16.9318 33.7736 16.5483C33.2367 16.1619 32.9299 15.6449 32.8532 14.9972L34.9114 14.946C34.9569 15.1847 35.0748 15.3665 35.2651 15.4915C35.4554 15.6165 35.6983 15.679 35.9938 15.679C36.2608 15.679 36.4782 15.6293 36.6458 15.5298C36.8134 15.4304 36.8986 15.2983 36.9015 15.1335C36.8986 14.9858 36.8333 14.8679 36.7054 14.7798C36.5776 14.6889 36.3773 14.6179 36.1046 14.5668L34.9625 14.3494C34.3063 14.2301 33.8176 14.0099 33.4966 13.6889C33.1756 13.3651 33.0165 12.9531 33.0194 12.4531C33.0165 12.0156 33.133 11.642 33.3688 11.3324C33.6046 11.0199 33.9398 10.7812 34.3745 10.6165C34.8091 10.4517 35.3219 10.3693 35.9128 10.3693C36.7992 10.3693 37.498 10.5554 38.0094 10.9276C38.5208 11.2969 38.8034 11.8054 38.8574 12.4531Z" fill="white"/>
</svg>
